#!OML:ASF H:\MichaelJackson\Top Level 1\Subject 1\Session 1\male.ASF
:FULLY-SPECIFIED
:DEGREES
1096
root 7.48035 15.9225 34.1488 -172.603 -205.53 -177.899
lowerback -1.37328 -4.79931 0.927692
upperback -1.02483 -6.41618 -3.15475
thorax -0.750789 -3.23368 -3.77846
lowerneck -5.05899 -3.27946 0.869032
upperneck 0.983714 -4.521 3.85011
head 1.22675 -2.18607 0.931366
rclavicle -1.43622e-014 -3.33958e-014
rhumerus 15.0299 -24.4482 -0.0634573
rradius 26.4366
rwrist -5.67865
rhand -37.9328 -50.2107
rfingers 7.12502
rthumb -10.9744 -439.904
lclavicle -1.43622e-014 -3.33958e-014
lhumerus -54.3936 -33.6355 115.43
lradius 52.9208
lwrist 22.2383
lhand 22.1516 35.2617
lfingers 7.12502
lthumb 46.5339 58.1306
rfemur -27.7001 -0.79858 -0.916702
rtibia 41.9049
rfoot -21.6684 0.717862
rtoes -38.5401
lfemur 0.977949 -7.60051 -2.28083
ltibia 16.7428
lfoot -31.1565 -5.2237
ltoes -18.8389
1097
root 7.49267 15.9235 34.151 -172.722 -205.475 -177.986
lowerback -1.37872 -4.76003 0.963673
upperback -1.0454 -6.36444 -3.11962
thorax -0.76495 -3.20823 -3.76195
lowerneck -5.05018 -3.30942 0.839956
upperneck 1.03743 -4.56151 3.86644
head 1.24423 -2.20528 0.94004
rclavicle -9.93923e-015 2.3059e-014
rhumerus 14.9891 -24.453 0.0716037
rradius 26.3843
rwrist -5.55547
rhand -37.903 -50.1555
rfingers 7.12502
rthumb -10.9457 -439.85
lclavicle -9.93923e-015 2.3059e-014
lhumerus -54.3364 -33.6276 115.472
lradius 52.8365
lwrist 22.1383
lhand 22.2541 35.1689
lfingers 7.12502
lthumb 46.6289 57.9969
rfemur -27.5868 -0.676327 -0.868578
rtibia 41.8507
rfoot -21.5999 0.717319
rtoes -38.4641
lfemur 1.09194 -7.64653 -2.27901
ltibia 16.8216
lfoot -31.2149 -5.06181
ltoes -18.9245
1098
root 7.50442 15.9246 34.1533 -172.839 -205.424 -178.075
lowerback -1.38729 -4.71577 1.00354
upperback -1.064 -6.30602 -3.09073
thorax -0.775996 -3.17947 -3.75443
lowerneck -5.04736 -3.33511 0.815223
upperneck 1.08819 -4.59712 3.9018
head 1.26223 -2.22166 0.953992
rclavicle -7.95139e-015 1.11319e-014
rhumerus 14.9664 -24.5165 0.168487
rradius 26.3219
rwrist -5.46471
rhand -37.8624 -50.1074
rfingers 7.12502
rthumb -10.9066 -439.804
lclavicle -7.95139e-015 1.11319e-014
lhumerus -54.2728 -33.6236 115.503
lradius 52.7526
lwrist 22.0485
lhand 22.3795 35.0874
lfingers 7.12502
lthumb 46.7449 57.8651
rfemur -27.4842 -0.519821 -0.819285
rtibia 41.8117
rfoot -21.5098 0.697297
rtoes -38.3457
lfemur 1.1956 -7.69742 -2.2743
ltibia 16.9102
lfoot -31.2718 -4.88907
ltoes -19.0172
1099
root 7.51539 15.9258 34.1555 -172.948 -205.382 -178.153
lowerback -1.3993 -4.67225 1.03494
upperback -1.07961 -6.24843 -3.07159
thorax -0.782292 -3.15101 -3.75272
lowerneck -5.05778 -3.35309 0.797747
upperneck 1.14147 -4.62373 3.95301
head 1.2835 -2.233 0.97171
rclavicle 6.03311e-014 3.26007e-014
rhumerus 14.9461 -24.5712 0.253663
rradius 26.2658
rwrist -5.43728
rhand -37.8228 -50.0795
rfingers 7.12502
rthumb -10.8683 -439.778
lclavicle 6.03311e-014 3.26007e-014
lhumerus -54.2085 -33.618 115.52
lradius 52.6841
lwrist 22.0081
lhand 22.4752 35.0478
lfingers 7.12502
lthumb 46.8335 57.787
rfemur -27.3936 -0.342745 -0.780221
rtibia 41.7921
rfoot -21.4037 0.663953
rtoes -38.1849
lfemur 1.28737 -7.74463 -2.27498
ltibia 17.0016
lfoot -31.3236 -4.73252
ltoes -19.0982
1100
root 7.52541 15.9269 34.1579 -173.047 -205.351 -178.214
lowerback -1.41684 -4.63323 1.04954
upperback -1.09021 -6.1965 -3.06216
thorax -0.780046 -3.12514 -3.75245
lowerneck -5.08542 -3.36058 0.793835
upperneck 1.19781 -4.63778 4.00814
head 1.30833 -2.23764 0.988449
rclavicle -2.4202e-014 -2.38542e-015
rhumerus 14.9124 -24.5551 0.356518
rradius 26.2249
rwrist -5.49101
rhand -37.7848 -50.0593
rfingers 7.12502
rthumb -10.8317 -439.76
lclavicle -2.4202e-014 -2.38542e-015
lhumerus -54.1491 -33.6134 115.524
lradius 52.6413
lwrist 22.0315
lhand 22.511 35.0563
lfingers 7.12502
lthumb 46.8667 57.7811
rfemur -27.3146 -0.15832 -0.754837
rtibia 41.7935
rfoot -21.2907 0.618895
rtoes -37.9946
lfemur 1.36676 -7.77893 -2.28186
ltibia 17.0901
lfoot -31.3697 -4.61355
ltoes -19.1566
1101
root 7.53451 15.928 34.1602 -173.135 -205.336 -178.257
lowerback -1.43747 -4.6019 1.04688
upperback -1.09678 -6.15454 -3.06198
thorax -0.771867 -3.10404 -3.75257
lowerneck -5.12659 -3.35507 0.81557
upperneck 1.25706 -4.63619 4.05158
head 1.33512 -2.23428 0.997437
rclavicle -7.02704e-014 -1.59028e-015
rhumerus 14.8668 -24.4546 0.479298
rradius 26.2012
rwrist -5.58629
rhand -37.7406 -50.0022
rfingers 7.12502
rthumb -10.7891 -439.705
lclavicle -7.02704e-014 -1.59028e-015
lhumerus -54.0984 -33.6108 115.52
lradius 52.6211
lwrist 22.106
lhand 22.4842 35.1106
lfingers 7.12502
lthumb 46.8419 57.8461
rfemur -27.2421 0.0195826 -0.742807
rtibia 41.8135
rfoot -21.1783 0.559587
rtoes -37.8046
lfemur 1.43553 -7.80011 -2.29437
ltibia 17.1715
lfoot -31.4104 -4.54089
ltoes -19.1944
1102
root 7.54266 15.929 34.1626 -173.214 -205.336 -178.283
lowerback -1.4617 -4.57829 1.02581
upperback -1.09901 -6.12252 -3.06838
thorax -0.756748 -3.08766 -3.74978
lowerneck -5.17998 -3.3391 0.852904
upperneck 1.32015 -4.62183 4.08503
head 1.36434 -2.22439 1.00084
rclavicle -8.04581e-014 -2.8625e-014
rhumerus 14.8027 -24.2535 0.635431
rradius 26.1985
rwrist -5.69645
rhand -37.69 -49.9094
rfingers 7.12502
rthumb -10.7403 -439.615
lclavicle -8.04581e-014 -2.8625e-014
lhumerus -54.0563 -33.6153 115.513
lradius 52.6177
lwrist 22.1938
lhand 22.4251 35.1815
lfingers 7.12502
lthumb 46.7871 57.9409
rfemur -27.1727 0.184284 -0.742283
rtibia 41.8467
rfoot -21.0724 0.488931
rtoes -37.6205
lfemur 1.49427 -7.80374 -2.30964
ltibia 17.2442
lfoot -31.4474 -4.51858
ltoes -19.209
